<?xml version="1.0" encoding="UTF-8" standalone="no"?>
<!-- Created with Inkscape (http://www.inkscape.org/) -->

<svg
   xmlns:dc="http://purl.org/dc/elements/1.1/"
   xmlns:cc="http://creativecommons.org/ns#"
   xmlns:rdf="http://www.w3.org/1999/02/22-rdf-syntax-ns#"
   xmlns:svg="http://www.w3.org/2000/svg"
   xmlns="http://www.w3.org/2000/svg"
   xmlns:sodipodi="http://sodipodi.sourceforge.net/DTD/sodipodi-0.dtd"
   xmlns:inkscape="http://www.inkscape.org/namespaces/inkscape"
   width="516.85406mm"
   height="180.62207mm"
   viewBox="0 0 1831.3727 639.99945"
   id="svg2"
   version="1.1"
   inkscape:version="0.91 r13725"
   sodipodi:docname="sbn-logo.svg"
   inkscape:export-filename="/Users/gulbis/Desktop/sbn-logo.png"
   inkscape:export-xdpi="144.00012"
   inkscape:export-ydpi="144.00012">
  <defs
     id="defs4" />
  <sodipodi:namedview
     id="base"
     pagecolor="#ffffff"
     bordercolor="#666666"
     borderopacity="1.0"
     inkscape:pageopacity="0.0"
     inkscape:pageshadow="2"
     inkscape:zoom="0.5"
     inkscape:cx="1170.1621"
     inkscape:cy="286.75197"
     inkscape:document-units="px"
     inkscape:current-layer="layer1"
     showgrid="false"
     showguides="true"
     inkscape:guide-bbox="true"
     fit-margin-top="0"
     fit-margin-left="0"
     fit-margin-right="0"
     fit-margin-bottom="0"
     inkscape:window-width="1920"
     inkscape:window-height="987"
     inkscape:window-x="0"
     inkscape:window-y="0"
     inkscape:window-maximized="1">
    <sodipodi:guide
       position="631.04448,867.39679"
       orientation="1,0"
       id="guide3482" />
    <sodipodi:guide
       position="566.47713,664.47083"
       orientation="0,1"
       id="guide3484" />
    <sodipodi:guide
       position="469.6261,463.85084"
       orientation="0,1"
       id="guide3486" />
    <sodipodi:guide
       position="631.04448,786.6876"
       orientation="0,1"
       id="guide3488" />
    <sodipodi:guide
       position="709.44769,1003.4495"
       orientation="1,0"
       id="guide3523" />
    <sodipodi:guide
       position="1823.2345,786.6876"
       orientation="1,0"
       id="guide3525" />
    <sodipodi:guide
       position="430.4245,311.65637"
       orientation="0,1"
       id="guide3527" />
    <sodipodi:guide
       position="190.6029,463.85084"
       orientation="1,0"
       id="guide3529" />
    <sodipodi:guide
       position="390.17277,664.47083"
       orientation="1,0"
       id="guide3557" />
    <sodipodi:guide
       position="631.04448,547.03128"
       orientation="0,1"
       id="guide3581" />
  </sodipodi:namedview>
  <metadata
     id="metadata7">
    <rdf:RDF>
      <cc:Work
         rdf:about="">
        <dc:format>image/svg+xml</dc:format>
        <dc:type
           rdf:resource="http://purl.org/dc/dcmitype/StillImage" />
        <dc:title></dc:title>
      </cc:Work>
    </rdf:RDF>
  </metadata>
  <g
     inkscape:label="Layer 1"
     inkscape:groupmode="layer"
     id="layer1"
     transform="translate(-21.546981,-355.06282)">
    <path
       style="fill:#535d6c"
       d="M 160 240 L 160 262.9707 C 160 279.82526 159.58391 286.28758 158.4375 287.23633 C 157.57812 287.94754 150.40625 290.77784 142.5 293.52539 C 134.59375 296.27293 126.15625 299.3837 123.75 300.4375 L 119.375 302.35352 L 103.60156 286.66992 C 90.037993 273.1847 87.498013 271.16735 85.476562 272.27734 C 84.183562 272.98732 71.402399 285.36368 57.074219 299.7793 C 34.655399 322.33493 31.200654 326.312 32.302734 328.30664 C 33.007084 329.58144 40.025768 337.01994 47.898438 344.83594 L 62.210938 359.04688 L 56.771484 370.46094 C 53.779344 376.73869 50.059096 385.95313 48.503906 390.9375 L 45.675781 400 L 22.837891 400 L 0 400 L 0 440 L 0 480 L 22.837891 480 L 45.675781 480 L 48.503906 489.0625 C 50.059096 494.04688 53.779024 503.26061 56.771484 509.53906 L 62.212891 520.95508 L 49.142578 533.91406 C 41.954308 541.04186 34.909298 548.47916 33.486328 550.43945 L 30.898438 554.00195 L 58.251953 581.37695 C 73.295623 596.43229 86.179132 608.75 86.882812 608.75 C 87.586483 608.75 95.143181 601.75237 103.67578 593.19922 C 115.5252 581.32128 119.65552 577.89343 121.1582 578.69141 C 122.24027 579.26603 130.71875 582.38399 140 585.61914 C 149.28125 588.85428 157.57812 592.07478 158.4375 592.77734 C 159.58447 593.71503 160 600.1644 160 617.02734 L 160 640 L 200 640 L 240 640 L 240 617.02734 C 240 600.17278 240.41608 593.71242 241.5625 592.76367 C 242.42187 592.05246 249.59375 589.22136 257.5 586.47266 C 265.40625 583.72395 273.88615 580.61439 276.34375 579.5625 L 280.8125 577.65039 L 296.32422 593.19922 C 304.85629 601.75183 312.41351 608.75 313.11719 608.75 C 313.82086 608.75 326.68611 596.45054 341.70703 581.41797 C 365.43079 557.67582 368.84677 553.77664 367.7168 551.73047 C 367.00134 550.43492 359.9792 542.98307 352.11133 535.17188 L 337.80664 520.9707 L 343.81445 508.23438 C 347.11885 501.22906 350.84549 492.01066 352.09766 487.75 L 354.375 480.00391 L 377.1875 480.00195 L 400 480 L 400 440 L 400 400 L 377.17188 400 L 354.34375 400 L 352.06836 392.05469 C 350.817 387.68522 347.09112 378.47318 343.78906 371.58203 L 337.78516 359.05078 L 353.26758 343.60742 C 361.78272 335.11273 368.75 327.58648 368.75 326.88281 C 368.75 325.22519 314.75395 271.25 313.0957 271.25 C 312.40361 271.25 304.85629 278.24622 296.32422 286.79883 L 280.8125 302.34961 L 276.34375 300.4375 C 273.88615 299.38561 265.40625 296.27605 257.5 293.52734 C 249.59375 290.77864 242.42187 287.94754 241.5625 287.23633 C 240.41608 286.28758 240 279.82526 240 262.9707 L 240 240 L 200 240 L 160 240 z M 200 360.04883 C 220.28749 360.04883 240.57538 367.92304 256.32617 383.67383 C 287.82773 415.1754 287.82773 464.8246 256.32617 496.32617 C 236.84216 515.81018 210.10775 523.77067 183.125 518.125 C 160.42796 513.37605 139.1228 496.89981 128.92188 476.20703 C 113.13729 444.18765 118.82253 408.52513 143.67383 383.67383 C 159.42462 367.92304 179.71251 360.04883 200 360.04883 z "
       transform="translate(21.546981,355.06282)"
       id="path3501" />
    <path
       style="fill:#ff6600"
       d="m 591.54282,764.44199 28.09999,-28.12082 -15.45484,-15.49204 -15.45485,-15.49204 6.19959,-11.07463 c 9.1825,-16.40316 16.9169,-35.70399 21.59412,-53.88714 l 1.36652,-5.3125 21.82682,0 21.82682,0 0,-40 0,-40 -21.82682,0 -21.82682,0 -1.369,-5.3125 c -5.10174,-19.79764 -11.81317,-36.57385 -21.5579,-53.88714 l -6.23333,-11.07463 15.45833,-15.49554 15.45833,-15.49553 -28.41872,-28.41873 -28.41874,-28.41872 -15.53226,15.49497 -15.53226,15.49496 -11.66291,-7.53063 c -18.3331,-11.83751 -27.9579,-15.8814 -45.41291,-19.08039 -14.84144,-2.72 -13.125,0.47421 -13.125,-24.42494 l 0,-21.85118 -40,0 -40,0 0,21.85118 c 0,24.89915 1.71643,21.70494 -13.125,24.42494 -17.49897,3.20704 -28.67013,7.92581 -45.61653,19.26868 -5.71514,3.82536 -10.7188,6.9552 -11.11926,6.9552 -0.40046,0 -7.63031,-6.88563 -16.06634,-15.3014 l -15.33821,-15.30139 -28.37093,28.37092 -28.37091,28.37092 15.53405,15.71285 c 14.82743,14.99809 15.45364,15.83931 13.76625,18.49297 -4.52826,7.12134 -11.35231,20.31808 -15.42325,29.82635 -6.607,15.4316 -12.64187,37.32878 -10.28785,37.32878 7.12535,0 52.66635,7.89244 65.56451,11.3626 9.78258,2.63194 12.60347,2.46507 12.60347,-0.74549 0,-4.06112 9.10961,-25.34874 14.70672,-34.36711 7.9908,-12.8752 25.83628,-30.53767 38.89618,-38.49729 69.65026,-42.44978 160.03151,-4.67855 179.59116,75.05295 3.32742,13.56366 3.70421,35.95678 0.83615,49.69434 -5.42398,25.98009 -17.01558,46.94268 -35.67873,64.52247 -12.75431,12.01395 -26.34366,20.34134 -42.78328,26.21709 -6.82545,2.43951 -12.60062,4.62619 -12.83372,4.85929 -0.2331,0.2331 1.01207,6.24059 2.76703,13.34997 3.10951,12.59674 6.67229,32.36942 9.59289,53.23868 1.39247,9.95 1.55897,10.31185 4.7369,10.29409 8.69741,-0.0486 50.00151,-16.85184 61.4338,-24.99234 1.9227,-1.36909 3.98028,-2.48925 4.5724,-2.48925 0.59212,0 7.80899,6.75 16.0375,15 8.2285,8.25 15.25565,15 15.61588,15 0.36022,0 13.29996,-12.65438 28.75496,-28.12083 z"
       id="path3497"
       inkscape:connector-curvature="0" />
    <g
       transform="matrix(1,0,0,1.0452289,10.992795,618.80111)"
       style="font-style:normal;font-weight:normal;font-size:40px;line-height:125%;font-family:sans-serif;letter-spacing:0px;word-spacing:0px;fill:#535d6c;fill-opacity:1;stroke:none;stroke-width:1px;stroke-linecap:butt;stroke-linejoin:miter;stroke-opacity:1"
       id="flowRoot3470">
      <path
         d="m 815.38954,94.285785 q -20.44444,0 -35.77778,-4.791666 -15.33333,-4.791667 -26.19444,-13.256945 -10.70139,-8.465277 -17.09028,-20.125 -6.22917,-11.659722 -8.625,-25.555555 l 38.65278,0 q 2.07639,8.465278 5.90972,15.972222 3.83333,7.347222 9.74306,12.777778 5.90972,5.430555 14.05555,8.625 8.14583,3.034722 18.84722,3.034722 7.1875,0 14.05556,-1.4375 7.02778,-1.597222 12.45833,-4.951389 5.59028,-3.354167 8.94445,-8.784722 3.35416,-5.590278 3.35416,-13.576389 0,-10.222222 -5.27083,-18.048611 -5.11111,-7.826389 -13.73611,-14.2152779 -8.46528,-6.5486111 -19.48611,-12.1388888 -10.86111,-5.5902778 -22.20139,-11.1805553 -11.34028,-5.75 -22.36111,-11.819445 -10.86111,-6.229166 -19.48611,-13.895833 -8.46528,-7.666667 -13.73611,-17.25 -5.11112,-9.583333 -5.11112,-22.041667 0,-13.576389 5.90973,-25.076393 5.90972,-11.65972 17.09027,-20.125 11.34028,-8.46527 27.63195,-13.25694 16.29167,-4.79167 37.05555,-4.79167 17.25,0 31.14584,4.79167 13.89583,4.79167 24.4375,13.09722 10.70139,8.14584 17.88889,19.32639 7.34722,11.180557 11.18055,24.118057 l -35.13889,0 q -3.03472,-8.145834 -7.02777,-15.493056 -3.99306,-7.347221 -9.90278,-12.937501 -5.90972,-5.59028 -14.21528,-8.78472 -8.30556,-3.35417 -19.96528,-3.35417 -10.86111,0 -18.36805,2.875 -7.50695,2.875 -12.13889,7.34722 -4.63195,4.3125 -6.70834,9.74306 -1.91666,5.430555 -1.91666,10.701389 0,9.104166 5.27083,16.611111 5.43056,7.347222 14.21528,13.736111 8.94444,6.229167 20.125,12.138889 11.18055,5.75 22.84028,11.659722 11.81944,5.909722 23,12.298611 11.34027,6.388889 20.125,14.215278 8.94444,7.6666667 14.21527,17.0902778 5.43056,9.4236112 5.43056,21.2430552 0,13.895834 -5.75,25.875 -5.75,11.819445 -17.09028,20.763889 -11.18055,8.784722 -27.95139,13.895834 -16.61111,4.951388 -38.33333,4.951388 z"
         style="font-style:normal;font-variant:normal;font-weight:bold;font-stretch:normal;font-size:287.5px;font-family:'Bangla MN';-inkscape-font-specification:'Bangla MN Bold';fill:#535d6c"
         id="path3605" />
      <path
         d="m 1022.8587,94.60523 q -18.368,0 -34.49998,-6.708333 -15.97222,-6.868056 -27.95138,-18.368056 -11.97917,-11.5 -18.84723,-26.673611 -6.86805,-15.333333 -6.86805,-32.263889 0,-20.2847222 6.38889,-37.534722 6.38889,-17.409722 18.04861,-30.027778 11.65972,-12.777778 28.11111,-19.965278 16.45143,-7.1875 36.57643,-7.1875 17.8888,0 32.743,5.75 15.0139,5.590278 25.5556,15.652778 10.7014,9.902778 16.6111,23.319444 5.9097,13.256945 5.9097,28.590278 l -118.83333,0 q 0.47917,14.215278 3.99305,27.152778 3.67362,12.9375 9.74306,22.840278 6.06942,9.902778 14.21532,15.8125 8.1458,5.75 18.0486,5.75 8.625,0 16.9305,-2.875 8.3056,-3.034722 15.3334,-8.145834 7.0277,-5.270833 12.1388,-12.138888 5.1112,-6.868056 7.507,-14.534723 l 26.6736,3.993056 q -3.9931,13.895833 -12.9375,26.194444 -8.7847,12.298611 -20.6042,21.5625 -11.8194,9.104167 -25.875,14.534723 -13.8958,5.270833 -28.1111,5.270833 z m 22.0417,-123.145833 q -0.6389,-7.666667 -3.3542,-13.895834 -2.5555,-6.229166 -6.7083,-10.701389 -3.9931,-4.472222 -9.4236,-6.868055 -5.2709,-2.555556 -11.5,-2.555556 -4.7917,0 -9.4236,2.395834 -4.63198,2.395833 -8.46531,6.868055 -3.83333,4.472222 -6.54861,10.861111 -2.55556,6.229167 -3.35417,13.895834 l 58.77779,0 z"
         style="font-style:normal;font-variant:normal;font-weight:bold;font-stretch:normal;font-size:287.5px;font-family:'Bangla MN';-inkscape-font-specification:'Bangla MN Bold';fill:#535d6c"
         id="path3607" />
      <path
         d="m 1195.2065,90.771897 -51.5903,0 0,-240.381947 51.5903,-14.375 0,254.756947 z"
         style="font-style:normal;font-variant:normal;font-weight:bold;font-stretch:normal;font-size:287.5px;font-family:'Bangla MN';-inkscape-font-specification:'Bangla MN Bold';fill:#535d6c"
         id="path3609" />
      <path
         d="m 1289.5424,90.771897 -51.5903,0 0,-240.381947 51.5903,-14.375 0,254.756947 z"
         style="font-style:normal;font-variant:normal;font-weight:bold;font-stretch:normal;font-size:287.5px;font-family:'Bangla MN';-inkscape-font-specification:'Bangla MN Bold';fill:#535d6c"
         id="path3611" />
      <path
         d="m 1430.7668,-136.67255 97.5903,0 q 19.6458,0 35.9375,4.15278 16.4514,4.15278 28.1111,11.81944 11.8195,7.66667 18.3681,18.36806 6.5486,10.701389 6.5486,23.798611 0,8.145833 -1.757,15.013889 -1.7569,6.708333 -5.75,12.777778 -3.993,6.069444 -10.7014,11.659722 -6.7083,5.590278 -16.4513,11.180555 10.0625,3.194445 18.368,8.625 8.4653,5.270834 14.5347,12.2986116 6.2292,7.02777777 9.5834,15.6527778 3.5139,8.6249996 3.5139,18.3680556 0,13.416667 -6.2292,25.076389 -6.0695,11.5 -17.4097,20.125 -11.1806,8.625 -27.1528,13.576389 -15.8125,4.951389 -35.1389,4.951389 l -111.9653,0 0,-227.444447 z m 55.7431,98.548613 36.8958,0 q 8.7847,0 15.6528,-2.715278 7.0278,-2.875 11.8194,-7.826388 4.7917,-4.951389 7.3473,-11.659723 2.5555,-6.868055 2.5555,-15.013889 0,-8.784722 -3.1944,-16.131944 -3.0348,-7.506944 -9.5834,-12.777781 -6.5486,-5.27083 -16.6111,-8.14583 -10.0625,-3.03472 -23.9583,-3.03472 l -20.9236,0 0,77.305553 z m 0,105.576389 30.8264,0 q 13.5764,0 23.4791,-2.875 9.9028,-3.034722 16.2917,-8.145833 6.5486,-5.111111 9.5833,-12.138889 3.1945,-7.1875 3.1945,-15.652778 0,-9.583333 -2.875,-17.729167 -2.875,-8.1458329 -9.2639,-14.0555551 -6.3889,-6.0694444 -16.9306,-9.4236109 -10.3819,-3.513889 -25.3958,-3.513889 l -28.9097,0 0,83.534722 z"
         style="font-style:normal;font-variant:normal;font-weight:bold;font-stretch:normal;font-size:287.5px;font-family:'Bangla MN';-inkscape-font-specification:'Bangla MN Bold';fill:#535d6c"
         id="path3613" />
      <path
         d="m 1647.6396,-83.804492 55.1042,0 54.3056,105.736111 47.7569,-105.736111 36.8958,0 -86.4097,190.708332 q -4.6319,10.0625 -11.8194,18.20833 -7.1875,8.30556 -15.8125,14.05556 -8.4653,5.90972 -17.8889,9.10417 -9.4236,3.19444 -18.3681,3.19444 -6.7083,0 -12.9375,-1.75694 -6.0694,-1.59723 -10.7014,-4.63195 -4.4722,-3.03472 -7.1875,-7.1875 -2.7152,-3.99305 -2.7152,-8.78472 0,-3.19444 1.118,-6.54861 1.1181,-3.35417 3.8334,-6.22917 2.875,-2.71528 7.5069,-4.47222 4.6319,-1.75694 11.6597,-1.75694 4.632,0 7.507,1.59722 2.875,1.59722 5.1111,3.35416 2.3958,1.91667 4.7916,3.51389 2.3959,1.59723 6.2292,1.59723 2.5556,0 5.2708,-2.875 2.7153,-2.875 5.2709,-7.1875 2.7153,-4.3125 4.9514,-9.26389 2.3958,-4.79167 4.1527,-8.625003 l 6.0695,-13.736112 -83.6945,-162.277777 z"
         style="font-style:normal;font-variant:normal;font-weight:bold;font-stretch:normal;font-size:287.5px;font-family:'Bangla MN';-inkscape-font-specification:'Bangla MN Bold';fill:#535d6c"
         id="path3615" />
    </g>
    <text
       xml:space="preserve"
       style="font-style:normal;font-weight:normal;font-size:38.2324295px;line-height:125%;font-family:sans-serif;letter-spacing:0px;word-spacing:0px;fill:#ff6600;fill-opacity:1;stroke:none;stroke-width:1px;stroke-linecap:butt;stroke-linejoin:miter;stroke-opacity:1"
       x="762.97845"
       y="890.97424"
       id="text3478"
       sodipodi:linespacing="125%"
       transform="scale(0.93879164,1.0651991)"><tspan
         sodipodi:role="line"
         id="tspan3480"
         x="762.97845"
         y="890.97424"
         style="font-style:normal;font-variant:normal;font-weight:bold;font-stretch:normal;font-size:238.95266724px;font-family:'Bangla MN';-inkscape-font-specification:'Bangla MN Bold';fill:#ff6600">Numbers</tspan></text>
    <circle
       style="fill:#535d6c"
       id="path3553"
       cx="418.85352"
       cy="-594.78259"
       r="40.764332"
       transform="scale(1,-1)" />
    <circle
       transform="scale(1,-1)"
       r="40.764332"
       cy="-796.56598"
       cx="220.1274"
       id="circle3579"
       style="fill:#ff6600" />
  </g>
</svg>
